<svg xmlns="http://www.w3.org/2000/svg" version="1.1" xmlns:xlink="http://www.w3.org/1999/xlink" xmlns:svgjs="http://svgjs.dev/svgjs" viewBox="0 0 4.784450424945165 3.806720337721153"><g transform="matrix(0.8417010598982005,0,0,0.8417010598982005,2.390646259879002,3.3619394917268433)"><g transform="matrix(1,0,0,1,0,0)"><path d=" M -1.8625606216528325 -1.7103284568814219 C -1.8393844661611456 -1.7009547800881275 -1.7302973963564314 -1.7226345218167887 -1.7227984549217958 -1.7411754462101383 C -1.7167993017740875 -1.7560081857248178 -1.7238733761006322 -1.799859724722013 -1.736852023175977 -1.805108983726258 C -1.7498306702513216 -1.8103582427305027 -1.8222434899820046 -1.8126784881165765 -1.8435655530343567 -1.8213022707664073 C -1.8565442001097012 -1.826551529770652 -1.8725963612384846 -1.8535390847376287 -1.8658473139473126 -1.8702259166916433 C -1.8482248015759193 -1.913797089016015 -1.773660254337655 -2.0368138695589666 -1.773660254337655 -2.0368138695589666 C -1.773660254337655 -2.0368138695589666 -1.7633888084417284 -2.0035347860498454 -1.7383998463493542 -1.9826409646294854 C -1.7172962212118539 -1.9654759710071192 -1.6652664095922427 -1.9260945197536703 -1.6084242147980905 -1.8826092936304957 L -1.6399197688235596 -1.8047374111784273 C -1.6447940807560726 -1.79268581032275 -1.6150133784084812 -1.7623030887908637 -1.6057429162118064 -1.7585536180735457 C -1.6001806388938016 -1.7563039356431551 -1.5955247648761401 -1.7598143255262972 -1.5936500295174814 -1.7644495566246348 L -1.560654687205085 -1.8460296239553728 C -1.479552781542698 -1.7851816092143045 -1.3997528691717105 -1.7237814953253001 -1.3851385675718826 -1.7092411312050566 C -1.3636806382819744 -1.6876180585605571 -1.3593464167757845 -1.6556616112621592 -1.363470834564834 -1.645464102845817 C -1.3720946172146649 -1.624142039793465 -1.4955036132247708 -1.596389207437511 -1.5449174295399706 -1.591564815541357 C -1.5516045480731708 -1.5910333593127453 -1.5571874683104996 -1.587897916501335 -1.560187044884354 -1.5804815467439952 C -1.568435880462453 -1.5600865299113105 -1.545684592078857 -1.4883203897274715 -1.5308518525641772 -1.4823212365797631 C -1.5030404659741528 -1.4710728244278097 -1.3186888748240702 -1.55615802196788 -1.297316891735359 -1.6089996564889264 C -1.2811941676508924 -1.6488626439346281 -1.2996765378101716 -1.768522169227416 -1.3233222207724986 -1.8007383402793136 C -1.3333012912739892 -1.8134039690408983 -1.4245800624333944 -1.8837615268128174 -1.5167858798124672 -1.954494031656468 L -1.4984134732976102 -1.9999192964201749 C -1.493539161365097 -2.011970897275852 -1.5236948107844204 -2.0414265725880707 -1.5329652729810952 -2.0451760433053887 C -1.5385275502991 -2.0474257257357795 -1.5431834243167615 -2.0439153358526374 -1.5446832126036885 -2.040207150973967 L -1.5645554074054726 -1.991073701331591 C -1.6328764609880426 -2.04351637133768 -1.693603992737069 -2.090730425258849 -1.7119264792155668 -2.1067705776660195 C -1.733582203501003 -2.125237564579785 -1.757656128095322 -2.1910664803738875 -1.7659995440723293 -2.194441004019473 C -1.7799052373673416 -2.20006521009545 -1.8355366447451018 -2.1718668677120814 -1.841910744964542 -2.156107081977734 C -1.8460351627535916 -2.145909573561392 -1.8305763866113918 -2.1094537614022126 -1.8347008044004411 -2.09925625298587 C -1.8500736343414441 -2.0612473579795036 -1.9236492066020692 -1.9540110060902234 -1.9378971953278765 -1.918783249742859 C -1.9573944430579289 -1.87057684632015 -1.9061317939772042 -1.7279509692528152 -1.8625606216528325 -1.7103284568814219 M -1.4499441192942286 -2.3652321668767344 C -1.430081395232637 -2.3903214512996325 -1.4661469611704545 -2.449484572866914 -1.4959404864226458 -2.473071557690054 C -1.5155414898780346 -2.4885893108631727 -1.5561814178123878 -2.4646436169394086 -1.5716991709855064 -2.44504261348402 C -1.5921826051740227 -2.419169288922906 -1.5554963291092805 -2.3607902074938405 -1.5257028038570892 -2.3372032226707002 C -1.5061018004017004 -2.3216854694975817 -1.4654618724673472 -2.345631163421346 -1.4499441192942286 -2.3652321668767344 M -1.2416205161575418 -1.938840004218756 C -1.2063387099378415 -1.9109080485071426 -1.1175451127095615 -1.9554018356157037 -1.0896131569979481 -1.990683641835404 C -1.0449220278593667 -2.047134531786924 -1.0790270728214981 -2.150661561630009 -1.1239127397891178 -2.255070741786123 C -1.1239127397891178 -2.255070741786123 -1.1332557211911292 -2.2803236366404103 -1.142664202849716 -2.287772158163507 C -1.1520726845083027 -2.295220679686604 -1.1776522393851712 -2.288687198814873 -1.1857214710351929 -2.2784946770180707 C -1.1937907026852144 -2.2683021552212685 -1.1846436612127325 -2.2508570518308986 -1.1846436612127325 -2.2508570518308986 C -1.145736265246494 -2.1550070933586785 -1.1188835214578319 -2.0648742461218332 -1.1368841151386495 -2.042137082113582 C -1.1430912164078968 -2.0342966807314267 -1.164783180511926 -2.0310626904238487 -1.1749757023087284 -2.0391319220738704 C -1.2298585119838175 -2.082581630958602 -1.355990022801414 -2.2857486607121293 -1.374022945980372 -2.300024993631398 C -1.3889197086064675 -2.3118184860429682 -1.4593534422131098 -2.280849321213601 -1.4668019637362069 -2.2714408395550145 C -1.476112615640078 -2.259680237481781 -1.4793142764495153 -2.24435870465829 -1.4708205550221964 -2.2325326023284813 C -1.4327621386105527 -2.180719892109483 -1.2784704026536728 -1.9680133801842188 -1.2416205161575418 -1.938840004218756 M -0.9049389602975758 -2.4418962873081083 C -0.9049389602975758 -2.4418962873081083 -0.910349381311333 -2.467756050347508 -0.9182682913886158 -2.476772194933078 C -0.9261872014658985 -2.4857883395186486 -0.952524001260357 -2.483951772997498 -0.9622914912280582 -2.475372953747108 C -0.9720589811957595 -2.466794134496719 -0.9669427245190132 -2.447330735060401 -0.9669427245190132 -2.447330735060401 C -0.9443668226638054 -2.3473741011863853 -0.9341264669696415 -2.253885411414536 -0.9566668284335675 -2.2340881362213296 C -0.9634289368727453 -2.2281489536633674 -0.994365245169013 -2.2209416775483377 -1.0029440644194025 -2.230709167516039 C -1.0339597955554265 -2.2660224004761895 -1.210310219425883 -2.6501662901851244 -1.2239138591439949 -2.680808434144381 C -1.2276904417645882 -2.688139015547642 -1.2321269335582885 -2.696220942333033 -1.2374062069431435 -2.7022317053900804 C -1.2486246628859607 -2.7150045768863054 -1.3233814428936839 -2.6985904414269855 -1.3376570051541703 -2.6860521671379542 C -1.3436677682112173 -2.6807728937530992 -1.345719076229623 -2.6709855480754587 -1.3395771655436737 -2.6564158214779616 C -1.298949118807386 -2.561666880489716 -1.1206388231275481 -2.185899081903184 -1.085003727779776 -2.145326431268117 C -1.0553078149899657 -2.111515889072228 -0.9524570915063897 -2.145950300333421 -0.9186465493105007 -2.175646213123231 C -0.8645496817970783 -2.223159673586927 -0.8795206936219535 -2.3311266537472495 -0.9049389602975758 -2.4418962873081083 M -0.3518221292774532 -2.595936626663339 C -0.3711095307084423 -2.6453025678175384 -0.38432377462320666 -2.8494945944928256 -0.401427696646914 -2.8932719385352286 C -0.4148924863251517 -2.9277349540579714 -0.48104173579970866 -2.9459084730884957 -0.5089847213586896 -2.9349910760520865 C -0.5583506625128889 -2.9157036746210974 -0.6228185099695618 -2.819657349109378 -0.6228185099695618 -2.819657349109378 C -0.6228185099695618 -2.819657349109378 -0.6906141274920647 -2.8640279953154284 -0.7325286058305359 -2.847651899760815 C -0.7809631141327693 -2.828728411564373 -0.8395954585635768 -2.742477335127339 -0.8395954585635768 -2.742477335127339 C -0.8395954585635768 -2.742477335127339 -0.9057751162962169 -2.77996403813508 -0.9216094747796393 -2.7737775131477815 C -0.9355809675591298 -2.768318814629577 -0.9451422019928594 -2.757067912616704 -0.944704580969032 -2.742208286516445 C -0.9395185709111249 -2.671228674657269 -0.9004056708273598 -2.3622785475379597 -0.8909439267291387 -2.338061293386843 C -0.8811182693963706 -2.3129126063837604 -0.818564852736086 -2.3094384066018208 -0.7962104642889014 -2.3181723242309475 C -0.782238971509411 -2.323631022749152 -0.7830838052989826 -2.3340370909724535 -0.784088945940229 -2.3476013709861996 C -0.7881223997783288 -2.377160316335043 -0.8187869619663783 -2.5820497612213407 -0.8185879812953614 -2.65298607354932 C -0.8184451914286556 -2.693839220442233 -0.7748152629648131 -2.738799528962527 -0.7552551730735265 -2.746441706888013 C -0.7412836802940361 -2.7519004054062175 -0.7255359208730081 -2.747316948935668 -0.7189854826511628 -2.730551157600279 C -0.7109793914911295 -2.7100596348570267 -0.6796560849114115 -2.4485259841255904 -0.6701943408131904 -2.4243087299744737 C -0.6603686834804223 -2.399160042971391 -0.5968838339681717 -2.396049756423998 -0.5745294455209871 -2.4047836740531254 C -0.5605579527414967 -2.4102423725713296 -0.5601074404445552 -2.420080921177212 -0.5624079271723147 -2.434212720808377 C -0.5679403334797996 -2.4621124068361606 -0.601559501075422 -2.6690683238092623 -0.6032666856395343 -2.7338918189392234 C -0.6050300610079579 -2.768632148634119 -0.5648789580379101 -2.819748573883628 -0.5425245695907255 -2.828482491512755 C -0.5304159425151672 -2.8332133635618657 -0.5083950590444464 -2.8235655300657414 -0.5022085340571479 -2.807731171582319 C -0.4883798311443633 -2.77233672320761 -0.476855254808742 -2.5889568329789254 -0.45902350631594074 -2.54331662323259 C -0.44264741076132735 -2.5014021448941186 -0.34353409823341247 -2.4950341562207723 -0.30161961989494124 -2.511410251775386 C -0.23455645455338736 -2.5376120046627673 -0.21364945348313158 -2.6434793617953996 -0.19788053722773047 -2.757001788126632 C -0.19788053722773047 -2.757001788126632 -0.19414191454675234 -2.783155615770961 -0.19850887336131595 -2.794332809994554 C -0.20287583217587957 -2.805510004218146 -0.22825853381991745 -2.8127707519241163 -0.24036716089547583 -2.8080398798750057 C -0.2524757879710341 -2.803309007825895 -0.254308245416883 -2.7832679973795837 -0.254308245416883 -2.7832679973795837 C -0.26719626405399155 -2.6816072922098404 -0.2894723190000408 -2.59023564794292 -0.31741530455902156 -2.5793182509065113 C -0.3257982002267158 -2.5760430317955887 -0.34709125722834266 -2.583827999587781 -0.3518221292774532 -2.595936626663339 M 0.39885368145401545 -3.157062046929785 C 0.29302852904702026 -3.15114283093134 0.2269301209901993 -3.1511215623161717 0.15850236975014595 -3.1494958746987693 C 0.12987864818038483 -3.1486697006875617 0.03729923890194056 -3.0711645203597002 0.03095615231820137 -3.0367441012368714 C 0.026425376186959088 -3.012158087577708 0.07357180981268055 -2.9038196650473083 0.09324062074001119 -2.9001950441423148 C 0.10897566948187573 -2.8972953474183196 0.15051472428454685 -2.9130277002652614 0.15305195891804255 -2.926795867914393 C 0.1555891935515382 -2.9405640355635247 0.1433268909693539 -3.011968768847691 0.1474952050100968 -3.0345879014141213 C 0.14912628441734402 -3.04343886633142 0.1575641623290389 -3.0561196477090533 0.1706340662021851 -3.060828958990623 C 0.24493849621034666 -3.088826310314672 0.3682843474066898 -3.0904999269522557 0.3682843474066898 -3.0904999269522557 C 0.3682843474066898 -3.0904999269522557 0.3350525643855683 -3.070186173058967 0.3197812275644122 -3.0424952671204677 C 0.3041474286527568 -3.0128374800892357 0.2655799641043538 -2.9304630260497238 0.22621029005483387 -2.849253243601828 L 0.1583528923555431 -2.8617581857240566 C 0.14556816525277813 -2.8641141893123025 0.12178166519980912 -2.8288409357732527 0.11996935474731221 -2.8190065303095873 C 0.11888196847581409 -2.813105887031388 0.12325547807189766 -2.80924941016604 0.12817268080373032 -2.8083432549397918 L 0.19996384068848724 -2.795113388636564 C 0.16499433664006444 -2.7212274374238516 0.13398525518212132 -2.6577968701306713 0.12725574199779174 -2.6488686198932547 C 0.10859433612691863 -2.624852959774854 0.0819108352448771 -2.6124840155726154 0.06814266759574564 -2.615021250206111 C 0.04552353502931539 -2.619189564246854 -0.006436155603107119 -2.734516016326951 -0.021081122178550987 -2.7819557144078217 C -0.022944057546152447 -2.7884000508217697 -0.02713633609698632 -2.7932399682334843 -0.03500386046791859 -2.794689816595482 C -0.05663955248798232 -2.798676899590975 -0.1223781943492264 -2.7619831539898634 -0.12527789107322146 -2.7462481052479992 C -0.1307148224307122 -2.716744888857003 -0.010356736858172372 -2.5532244582151007 0.045699374284719985 -2.5428942886358685 C 0.09880516378851276 -2.533107812192385 0.20838554323064692 -2.575958021542141 0.2351996502428336 -2.6055891481683595 C 0.24407727556514594 -2.6151383768616436 0.2800302201599353 -2.6888430970291064 0.3209270278915708 -2.772821970070852 L 0.4890953613202479 -2.741831461333155 C 0.4537633951813258 -2.6659786290277094 0.4268693069540984 -2.602806578099897 0.4225197618681058 -2.5792040049871003 C 0.41635790632961633 -2.5457670264106382 0.4577609632122973 -2.4669584806762477 0.46956224976869576 -2.4647837081332513 C 0.4862807390569268 -2.4617027803640066 0.5632769743388202 -2.4932714317830222 0.5659954400175655 -2.50802303997852 C 0.5676265194248128 -2.5168740048958194 0.5443624438924243 -2.5506494810526896 0.5467184474806703 -2.5634342081554546 C 0.5516116857024119 -2.589987102907351 0.5769786402475237 -2.6503900632413133 0.6090751079769648 -2.719721273812693 L 0.6395617649143274 -2.714103111409952 C 0.6523464920170924 -2.711747107821706 0.6751495515236948 -2.747201592406006 0.6769618619761918 -2.7570359978696715 C 0.6780492482476899 -2.7629366411478706 0.6736757386516062 -2.7667931180132186 0.6697419764661402 -2.7675180421942174 L 0.6353215573433115 -2.7738611287779564 C 0.6729828666654661 -2.851318380085636 0.7146818838982185 -2.9341325815357653 0.7447848101299132 -2.9926459460971127 C 0.7575455727225872 -3.017748992487012 0.8096972779799494 -3.057963413267985 0.8113283573871967 -3.0668143781852844 C 0.814046823065942 -3.0815659863807823 0.7713218280564862 -3.1311298320895444 0.7546033387682551 -3.1342107598587887 C 0.7437854927582233 -3.1362043013565355 0.6635270986618353 -3.0869337201029223 0.64789329975018 -3.0572759330716903 C 0.6137526656078875 -2.9934056183678925 0.5613637126003259 -2.891207782760814 0.5153418106865945 -2.7959713162984188 L 0.3461900367115509 -2.8271430560813657 C 0.39257440071578165 -2.924346403636494 0.4391399957652622 -3.0225331917379883 0.4540488704959188 -3.0482572165837545 C 0.46779307363495937 -3.0731790319284036 0.5304001628118541 -3.1094330301188977 0.5320312422191014 -3.1182839950361965 C 0.5347497078978467 -3.1330356032316944 0.4890743912492912 -3.1831431420762053 0.47235590196106014 -3.1862240698454505 C 0.46153805595102826 -3.188217611343197 0.4111986611461629 -3.1578375960258884 0.39885368145401545 -3.157062046929785 M 0.9230265160963873 -2.1769526915576662 C 0.97997297030778 -2.1328947597774546 1.0815308333113913 -2.1693776388050168 1.1870140918372125 -2.2142026560473416 C 1.1870140918372125 -2.2142026560473416 1.2113701520551703 -2.2244389801267763 1.2187131406852056 -2.233930055828675 C 1.226056129315241 -2.2434211315305737 1.2192373983436318 -2.268926129235667 1.208955399666575 -2.2768810335848717 C 1.198673400989518 -2.284835937934077 1.1805406112680408 -2.276106565853755 1.1805406112680408 -2.276106565853755 C 1.0867129707600232 -2.234907368328825 0.9960946967502611 -2.2076616637959696 0.9731579304706723 -2.225407219651888 C 0.9652487007190901 -2.231526376843584 0.9609817459289443 -2.253792788696841 0.9689366502781491 -2.264074787373898 C 1.0013681833941381 -2.305993705057284 1.187145733789544 -2.436625637482256 1.2101738492643777 -2.4516823933638436 C 1.2154271895297115 -2.455204099776454 1.2237401083908939 -2.462680421064855 1.228023518425081 -2.468216881890963 C 1.2390380013701339 -2.482453495443811 1.2082541351806269 -2.550522237039543 1.1924356756774623 -2.5627605514229352 C 1.1861082918761965 -2.567655877176292 1.1759304065039244 -2.569208503773027 1.164199894534917 -2.5605832449974906 C 1.1282174356527366 -2.5353193843900494 1.023179849699636 -2.453483539327235 0.9538416020679423 -2.4047166713186585 C 0.9271419922780909 -2.3849143775861217 0.8147651088294567 -2.3605949189907482 0.7831281898231275 -2.385071547757532 C 0.7760098830467035 -2.3905787892300587 0.7709520052813994 -2.413457116802485 0.7789069096306043 -2.4237391154795422 C 0.807055032712406 -2.4601215723368206 0.9886240670248282 -2.590216482993827 1.0100703365493455 -2.606497070313754 C 1.0153236768146796 -2.610018776726364 1.0236365956758617 -2.617495098014765 1.0279200057100488 -2.623031558840873 C 1.0389344886551017 -2.6372681723937212 1.0081506224655947 -2.705336913989453 0.9931230859375885 -2.7169633126536756 C 0.9860047791611644 -2.7224705541262018 0.9774087397392087 -2.722799349284598 0.9640963818198849 -2.7153979219474005 C 0.9097272320090353 -2.6778080888958242 0.7066370342208921 -2.5264331518607492 0.6778769954199206 -2.4892597720283125 C 0.6521765352147972 -2.4560410070716667 0.6802131627228108 -2.364810817342735 0.7213411574310389 -2.3329911999459156 C 0.7513962304870515 -2.3097384026174703 0.8699799291881253 -2.3077619405325924 0.8699799291881253 -2.3077619405325924 C 0.8577708341583143 -2.2805417642188166 0.8874349822142671 -2.2044888989202986 0.9230265160963873 -2.1769526915576662 M 1.2886998324228323 -1.8667941629345923 C 1.3336117888021717 -1.8949351681437228 1.531773558933064 -1.9459343138090317 1.571601142892101 -1.9708895448435437 C 1.6029547728173004 -1.9905351522536914 1.6090260167844677 -2.058063960896308 1.593097145911375 -2.083485822997821 C 1.565487103064681 -2.1275503839737766 1.4634564627462696 -2.1792683541216364 1.4634564627462696 -2.1792683541216364 C 1.4634564627462696 -2.1792683541216364 1.4884975605113997 -2.2504227174644225 1.4794712003499806 -2.2648284393219464 C 1.4715067649134341 -2.277539370372703 1.4586724863780742 -2.284838774079637 1.4436231765560832 -2.2824896734258298 C 1.3748500795148222 -2.264179536251212 1.0777361327443735 -2.1676999910901418 1.0557038522563955 -2.1538949696667946 C 1.0328241763650339 -2.1395589858810116 1.0429660706641888 -2.076288598020459 1.0551782050002265 -2.056798503742632 C 1.063142640436773 -2.0440875726918755 1.0732094815579198 -2.0468550101060887 1.0863494712516544 -2.050367939204227 C 1.1141097121244021 -2.060681475294581 1.309707852279998 -2.128955683951085 1.3794409703266735 -2.1419669193839113 C 1.4196064310918028 -2.1494325581057385 1.4705252084728366 -2.1152524745771584 1.4816754180840015 -2.0974571711060994 C 1.488577928795675 -2.0864410308621104 1.4831985670995702 -2.063008948843167 1.4687928452420462 -2.053982588681748 C 1.436591819913463 -2.033806018909164 1.271274663075621 -1.9963061835088272 1.2170413572590602 -1.962324592312896 C 1.178908564106791 -1.938431286003257 1.1911045697839509 -1.8398652804763884 1.2149978760935898 -1.8017324873241192 C 1.2532271661890122 -1.740720018280488 1.3616669272806838 -1.7390412644625604 1.4756093975530635 -1.7455307535200957 C 1.4756093975530635 -1.7455307535200957 1.5020020025425636 -1.7467267476121444 1.5121707473831687 -1.7530982959613817 C 1.5223394922237738 -1.7594698443106185 1.5247476090667493 -1.7857605455806604 1.5178450983550758 -1.7967766858246494 C 1.5109425876434024 -1.8077928260686382 1.4909108091205667 -1.8058620621752366 1.4909108091205667 -1.8058620621752366 C 1.388628067056643 -1.799597824321763 1.2947066534245266 -1.8044730741968817 1.2787777825514337 -1.8298949362983947 C 1.2739991212895059 -1.8375214949288485 1.2776836921788433 -1.8598916522229187 1.2886998324228323 -1.8667941629345923 M 1.8636457952748957 -1.64052561388395 C 1.8709256249254402 -1.6405894907894396 1.8820417605188398 -1.6417859561960249 1.8877962194331226 -1.6434848389476684 C 1.9050595961759709 -1.6485814872025986 1.9228167923650177 -1.7226401260201174 1.9171538498595395 -1.7418216557343933 C 1.9148886728573484 -1.7494942676201037 1.9046677368441727 -1.7558607789893366 1.890108077543084 -1.7557330251783572 C 1.8670263649804633 -1.756217323822328 1.8068695748046806 -1.7551400143278624 1.734354425424511 -1.7535421687872514 L 1.7264263059168417 -1.7803963103872376 C 1.721895951912459 -1.7957415341586584 1.678436244228977 -1.8016790258905506 1.6669273264004114 -1.7982812603872638 C 1.6611728674861288 -1.7965823776356205 1.659035444294917 -1.789695330220242 1.6604511799212864 -1.784899947791673 L 1.6700781821805992 -1.752291347277404 C 1.535771236778493 -1.7480908215060658 1.3874709263258458 -1.7418443889523205 1.3615758612115734 -1.7341994165699253 C 1.3136220369258835 -1.72004206030623 1.2951612718730818 -1.6165809557612598 1.3144152763917072 -1.5513637547327217 C 1.335085016536702 -1.4813511712756147 1.4390666571278177 -1.4505320470184258 1.5505473975892619 -1.4260975528315571 C 1.5505473975892619 -1.4260975528315571 1.57628706938924 -1.4201419423985775 1.5877959872178056 -1.4235397079018643 C 1.599304905046371 -1.4269374734051512 1.6087040391870397 -1.4516084336095234 1.6050231265584791 -1.4640764279238028 C 1.6013422139299185 -1.476544422238082 1.581530513059605 -1.4800794623545759 1.581530513059605 -1.4800794623545759 C 1.481339420206942 -1.5015909688799007 1.3919174389169153 -1.532537846948069 1.383706172283972 -1.5603510650337693 C 1.3757780527763028 -1.5872052066337554 1.3908677689257647 -1.6208548792403155 1.4215582164686063 -1.6299155872490803 C 1.4436169756400234 -1.63642797113038 1.585486897817948 -1.6397332973214942 1.7032063958376455 -1.6400793984488897 L 1.7258581658595578 -1.5633532795917862 C 1.7303885198639402 -1.5480080558203655 1.774131374672696 -1.5411114876027594 1.7865993689869755 -1.54479240023132 C 1.7923538279012583 -1.5464912829829633 1.7935321746067563 -1.553095183273068 1.791833291855113 -1.5588496421873508 L 1.7674826390815572 -1.6413302199587372" fill="#af2cff" fill-rule="nonzero"></path></g><g transform="matrix(1,0,0,1,0,0)"><g transform="matrix(1,0,0,1,0,0)" clip-path="url(#SvgjsClipPath88613)"><g clip-path="url(#SvgjsClipPath88611c5ce8b3b-841c-45a5-8936-bbd7f602c253)"><path d=" M 0.5447927479616568 -1.1511030475923407 L 0.5447927479616568 -1.0790680958807397 L 0.4468336101314079 -1.0790680958807397 L 0.4468336101314079 -1.210035964619146 C 0.6738912877139158 -1.2413315992569687 0.8430407038789205 -1.435362079110027 0.8430783226547658 -1.6645663641515025 C 0.8430783226547658 -1.918011810448177 0.6376201936230903 -2.123469939479852 0.3841747473264161 -2.123469939479852 C 0.14955857539989337 -2.1234593348224426 -0.04726978906253121 -1.9464903683231056 -0.07213990793070513 -1.713196079002948 C -0.09702607042523625 -1.9464891835319513 -0.2938553612809194 -2.1234521991232116 -0.5284720558910105 -2.123469939479852 C -0.6501808513144125 -2.123469939479852 -0.7669047713425053 -2.0751213087508638 -0.8529658859164386 -1.9890601941769301 C -0.9390270004903721 -1.9029990796029967 -0.9873756312193607 -1.7862751595749042 -0.9873756312193607 -1.664566364151502 C -0.9873278942935217 -1.4442325862540208 -0.8307168543203602 -1.25502025144832 -0.6142737650085297 -1.213796895803725 L -0.6142737650085297 -1.1333304611574242 L -0.7187226957199019 -1.1333304611574242 L -0.7664602827089645 -1.153534533334913 L -0.7664602827089645 -0.9632314153964703 L -0.7187226957199019 -0.9834179948707753 L -0.6142737650083986 -0.9834179948707753 L -0.6142737650083986 -0.8227999942355346 L -0.39790651932583543 -0.8227999942355346 L -0.39790651932583543 -0.74784376109221 L -0.27370832671962686 -0.74784376109221 L -0.3258890603174187 -0.7258204477835881 C -0.35737592604857027 -0.7302286089859495 -0.4214167124050958 -0.7157971288591713 -0.46392398114214983 -0.6978321226892312 C -0.519113459687585 -0.6745318420481794 -0.5334049981888912 -0.6473131958939171 -0.5240464019854656 -0.6251324482566394 C -0.5146878057820401 -0.6029517006193614 -0.4852300936202295 -0.5942228417305588 -0.43002312237161033 -0.6175231223716107 C -0.38751585363455565 -0.6354706358383675 -0.33251879482414437 -0.6712607065527763 -0.3136966461981895 -0.6969225021236645 L -0.24453049780875968 -0.7261178237377155 L -0.23064129148068502 -0.6814239671026641 L -0.6142037941956624 -0.1874825072968167 L -0.47860035911350285 -0.1874825072968167 L -0.13716028566553218 -0.6274239923737397 L -0.13716028566553218 -0.1874825072968167 L -0.030139927585985382 -0.1874825072968167 L -0.030139927585985382 -0.6274589777801067 L 0.3113001458619853 -0.18751749270318396 L 0.4469035809441444 -0.18751749270318396 L 0.06334107822916635 -0.6815464160249516 L 0.08394748257988649 -0.7478612537953937 L 0.23055382796476498 -0.7478612537953937 L 0.23055382796476498 -0.8228174869387181 L 0.44693856635051166 -0.8228174869387181 L 0.44693856635051166 -0.9577212138935189 L 0.544897704180761 -0.9577212138935189 L 0.544897704180761 -0.8979661398170669 L 0.9874630947352796 -0.7265376486141306 L 0.9874630947352796 -1.3225140460920932 Z M -0.4417957116144242 -1.21397182283554 C -0.24360777148489043 -1.2521483497999428 -0.09359753777731139 -1.4152841240207392 -0.07213990793070513 -1.6159716347064257 C -0.050690971742596735 -1.415314631122957 0.09927751296446785 -1.252192759651932 0.2974284322370937 -1.2139893155387242 Z" fill="#af2cff" transform="matrix(1,0,0,1,0,0)" fill-rule="nonzero"></path></g></g></g></g><defs><clipPath id="SvgjsClipPath88613"><path d=" M -0.98737563121936 -2.123469939479852 h 1.97475126243872 v 1.935969939479852 h -1.97475126243872 Z"></path></clipPath><clipPath id="SvgjsClipPath88611c5ce8b3b-841c-45a5-8936-bbd7f602c253"><path d=" M -0.98737563121936 -2.123469939479852 L 0.98737563121936 -2.123469939479852 L 0.98737563121936 -0.18750000000000022 L -0.98737563121936 -0.18750000000000022 Z"></path></clipPath></defs></svg>